<svg width="32" height="32" viewBox="0 0 32 32" fill="none" xmlns="http://www.w3.org/2000/svg">
<path d="M24.575 6.61875C25.1562 5.99375 25.5187 5.14375 25.5187 4.20625C25.5187 2.25 23.9562 0.6875 22.0625 0.6875C20.625 0.6875 17.3125 2.8375 15.9875 4.76875C14.6188 2.8375 11.3188 0.75 9.9375 0.75C8.05 0.75 6.48125 2.3125 6.48125 4.26875C6.48125 5.175 6.81875 5.99375 7.3625 6.6125H0.6875V15.0188H2.5125V31.3125H12.0938H19.9125H29.4937V15.025H31.3125V6.61875H24.575ZM22.0625 1.99375C23.2375 1.99375 24.2125 2.96875 24.2125 4.275C24.2125 5.375 23.4438 6.31875 22.45 6.51875H17.1625C16.825 6.41875 16.7188 6.3 16.7188 6.23125C16.7188 5.11875 20.625 1.99375 22.0625 1.99375ZM9.9375 1.99375C11.3062 1.99375 15.2812 5.11875 15.2812 6.23125C15.2812 6.33125 15.05 6.44375 14.8813 6.51875H9.55625C8.5625 6.31875 7.79375 5.375 7.79375 4.275C7.7875 3.03125 8.76875 1.99375 9.9375 1.99375ZM12.0875 30.0063H3.8125V15.025H12.0875V30.0063ZM12.0875 13.7875H1.99375V7.925H12.0938V13.7875H12.0875ZM18.6 30.0063H13.3875V7.91875H18.6V30.0063ZM28.1812 30.0063H19.9062V15.025H28.1812V30.0063ZM30 13.7875H19.9062V7.925H30.0063V13.7875H30Z" fill="#B79E81"/>
</svg>
