<svg width="64" height="64" viewBox="0 0 64 64" fill="none" xmlns="http://www.w3.org/2000/svg">
<path d="M21.9059 22.7303L21.713 22.9765C21.3945 23.3828 21.1259 23.8546 20.9252 24.3663C20.7384 24.8592 20.6245 25.3226 20.5726 25.7825L20.5721 25.7862C20.1111 29.608 21.8249 33.1691 26.8257 38.17C33.6123 44.9561 39.0326 44.4496 39.2185 44.4305C39.7013 44.3725 40.1638 44.2572 40.6368 44.0736C41.1441 43.8754 41.6164 43.607 42.0234 43.2885L42.2182 43.1361L43.0605 42.3112C43.6394 41.7291 43.6371 40.8239 43.1078 40.2929L39.4027 36.5873C38.8714 36.0582 37.9651 36.0569 37.3843 36.6379L37.3842 36.638L35.5169 38.5049L35.2512 38.7706L34.9221 38.5892C34.8033 38.5237 34.6804 38.4554 34.5514 38.3829C34.551 38.3827 34.5506 38.3825 34.5502 38.3823L34.795 37.9463C33.6158 37.2929 32.0018 36.3974 30.3035 34.6978L21.9059 22.7303ZM21.9059 22.7303L22.6891 21.9426L21.9059 22.7303Z" stroke="#B79E81"/>
<circle cx="32" cy="32" r="31.5" stroke="#B79E81"/>
</svg>
