<svg width="200" height="21" viewBox="0 0 200 21" fill="none" xmlns="http://www.w3.org/2000/svg">
<path d="M136.131 6.32341V4.76422H139.259V3.55151H136.131V2.08856H139.673V0.837347H134.582V7.57462H139.798V6.32341H136.131Z" fill="#161B15"/>
<path d="M145.862 7.57462L143.86 4.92784L145.785 2.39654H144.188L143.062 3.90762L141.964 2.39654H140.28L142.205 4.96633L140.213 7.57462H141.849L143.023 5.98655L144.159 7.57462H145.862Z" fill="#161B15"/>
<path d="M148.895 7.65162C150.541 7.65162 151.735 6.54478 151.735 4.98558C151.735 3.42639 150.541 2.31955 148.895 2.31955C147.25 2.31955 146.046 3.42639 146.046 4.98558C146.046 6.54478 147.25 7.65162 148.895 7.65162ZM148.895 6.41966C148.145 6.41966 147.567 5.88068 147.567 4.98558C147.567 4.09049 148.145 3.55151 148.895 3.55151C149.646 3.55151 150.214 4.09049 150.214 4.98558C150.214 5.88068 149.646 6.41966 148.895 6.41966Z" fill="#161B15"/>
<path d="M155.674 6.26567C155.51 6.39079 155.289 6.45816 155.067 6.45816C154.663 6.45816 154.423 6.21754 154.423 5.77481V3.667H155.712V2.51204H154.423V1.25121H152.921V2.51204H152.122V3.667H152.921V5.79406C152.921 7.02601 153.633 7.65162 154.856 7.65162C155.318 7.65162 155.77 7.54575 156.078 7.32438L155.674 6.26567Z" fill="#161B15"/>
<path d="M157.672 1.67469C158.23 1.67469 158.605 1.30896 158.605 0.808473C158.605 0.346488 158.23 0 157.672 0C157.113 0 156.738 0.365738 156.738 0.837347C156.738 1.30896 157.113 1.67469 157.672 1.67469ZM156.921 7.57462H158.422V2.39654H156.921V7.57462Z" fill="#161B15"/>
<path d="M162.318 7.65162C163.406 7.65162 164.262 7.17039 164.638 6.34266L163.473 5.70743C163.194 6.20792 162.78 6.41966 162.309 6.41966C161.548 6.41966 160.951 5.8903 160.951 4.98558C160.951 4.08086 161.548 3.55151 162.309 3.55151C162.78 3.55151 163.194 3.77287 163.473 4.26373L164.638 3.63813C164.262 2.79116 163.406 2.31955 162.318 2.31955C160.634 2.31955 159.431 3.42639 159.431 4.98558C159.431 6.54478 160.634 7.65162 162.318 7.65162Z" fill="#161B15"/>
<path d="M135.977 19.1242H137.536V13.6574H139.692V12.387H133.821V13.6574H135.977V19.1242Z" fill="#161B15"/>
<path d="M141.747 14.6295V13.9462H140.313V19.1242H141.814V16.6796C141.814 15.6882 142.363 15.2359 143.19 15.2359C143.306 15.2359 143.402 15.2455 143.527 15.2551V13.8692C142.728 13.8692 142.112 14.129 141.747 14.6295Z" fill="#161B15"/>
<path d="M146.48 13.8692C145.653 13.8692 144.815 14.0905 144.247 14.4948L144.786 15.5439C145.162 15.2455 145.73 15.0626 146.278 15.0626C147.087 15.0626 147.472 15.438 147.472 16.0828H146.278C144.7 16.0828 144.055 16.7181 144.055 17.6324C144.055 18.5275 144.777 19.2012 145.99 19.2012C146.75 19.2012 147.289 18.951 147.568 18.4794V19.1242H148.973V16.1695C148.973 14.6006 148.059 13.8692 146.48 13.8692ZM146.365 18.1906C145.836 18.1906 145.518 17.9404 145.518 17.565C145.518 17.2185 145.739 16.9587 146.442 16.9587H147.472V17.488C147.298 17.9596 146.865 18.1906 146.365 18.1906Z" fill="#161B15"/>
<path d="M153.934 13.9462L152.452 17.4688L151.018 13.9462H149.468L151.643 19.1242H153.193L155.378 13.9462H153.934Z" fill="#161B15"/>
<path d="M160.922 16.5544C160.922 14.8894 159.747 13.8692 158.227 13.8692C156.648 13.8692 155.464 14.9856 155.464 16.5352C155.464 18.0751 156.629 19.2012 158.419 19.2012C159.353 19.2012 160.075 18.9125 160.556 18.3639L159.757 17.4977C159.401 17.8345 159.006 17.9981 158.458 17.9981C157.668 17.9981 157.12 17.6035 156.975 16.9587H160.893C160.902 16.8336 160.922 16.6699 160.922 16.5544ZM158.236 15.0049C158.91 15.0049 159.401 15.4284 159.507 16.0828H156.956C157.062 15.4187 157.553 15.0049 158.236 15.0049Z" fill="#161B15"/>
<path d="M161.921 19.1242H163.423V11.9827H161.921V19.1242Z" fill="#161B15"/>
<path d="M169.197 17.873V16.3138H172.325V15.1011H169.197V13.6382H172.739V12.387H167.648V19.1242H172.864V17.873H169.197Z" fill="#161B15"/>
<path d="M178.928 19.1242L176.926 16.4774L178.851 13.9462H177.254L176.128 15.4572L175.03 13.9462H173.346L175.271 16.5159L173.279 19.1242H174.915L176.089 17.5362L177.225 19.1242H178.928Z" fill="#161B15"/>
<path d="M182.718 13.8692C182.025 13.8692 181.467 14.0905 181.091 14.5429V13.9462H179.657V20.9914H181.159V18.5756C181.544 18.9991 182.073 19.2012 182.718 19.2012C184.171 19.2012 185.297 18.1618 185.297 16.5352C185.297 14.9086 184.171 13.8692 182.718 13.8692ZM182.458 17.9693C181.707 17.9693 181.139 17.4303 181.139 16.5352C181.139 15.6401 181.707 15.1011 182.458 15.1011C183.209 15.1011 183.777 15.6401 183.777 16.5352C183.777 17.4303 183.209 17.9693 182.458 17.9693Z" fill="#161B15"/>
<path d="M191.375 16.5544C191.375 14.8894 190.2 13.8692 188.68 13.8692C187.101 13.8692 185.917 14.9856 185.917 16.5352C185.917 18.0751 187.082 19.2012 188.872 19.2012C189.806 19.2012 190.528 18.9125 191.009 18.3639L190.21 17.4977C189.854 17.8345 189.459 17.9981 188.911 17.9981C188.121 17.9981 187.573 17.6035 187.428 16.9587H191.346C191.355 16.8336 191.375 16.6699 191.375 16.5544ZM188.689 15.0049C189.363 15.0049 189.854 15.4284 189.96 16.0828H187.409C187.515 15.4187 188.006 15.0049 188.689 15.0049Z" fill="#161B15"/>
<path d="M193.808 14.6295V13.9462H192.374V19.1242H193.876V16.6796C193.876 15.6882 194.424 15.2359 195.252 15.2359C195.367 15.2359 195.464 15.2455 195.589 15.2551V13.8692C194.79 13.8692 194.174 14.129 193.808 14.6295Z" fill="#161B15"/>
<path d="M199.596 17.8153C199.432 17.9404 199.211 18.0078 198.989 18.0078C198.585 18.0078 198.345 17.7672 198.345 17.3244V15.2166H199.634V14.0617H198.345V12.8008H196.843V14.0617H196.044V15.2166H196.843V17.3437C196.843 18.5756 197.555 19.2012 198.778 19.2012C199.24 19.2012 199.692 19.0954 200 18.874L199.596 17.8153Z" fill="#161B15"/>
<path d="M16.9046 19.1948H12.8083V13.9336L9.79244 19.1948H7.11194L4.10117 13.9336V19.1845H0.00488281V8.15527H5.051L8.45603 14.4636L11.8636 8.15527H16.9097V19.1948H16.9046Z" fill="#161B15"/>
<path d="M27.9754 17.2068H23.2749L22.5068 19.1935H18.0086L22.5811 8.15405H28.6692L33.2442 19.1935H28.7332L27.9754 17.2068ZM26.9027 14.3676L25.6226 10.9933L24.3425 14.3676H26.9027Z" fill="#161B15"/>
<path d="M43.0032 13.3589L49.3601 19.1935H43.6816L40.1563 15.6912L38.4538 17.0942V19.191H34.3575V8.15405H38.4538V12.4756L43.5306 8.15405H49.3652L43.0032 13.3589Z" fill="#161B15"/>
<path d="M54.5599 19.1935H50.4636V8.15405H54.5599V19.1935Z" fill="#161B15"/>
<path d="M70.205 8.15405V19.1935H64.8414L60.0795 12.6804V19.1935H55.9832V8.15405H61.3442L66.1062 14.6671V8.15405H70.2024H70.205Z" fill="#161B15"/>
<path d="M85.0265 11.6282H80.2953V19.1987H76.199V11.6282H71.4653V8.15405H85.0342V11.6282H85.0265Z" fill="#161B15"/>
<path d="M85.9829 13.6586C85.9829 9.81833 88.0644 7.99805 92.921 7.99805C97.7777 7.99805 99.8591 9.84393 99.8591 13.6586C99.8591 17.4733 97.7623 19.3524 92.921 19.3524C88.0797 19.3524 85.9829 17.5168 85.9829 13.6586ZM95.7603 13.6586C95.7603 12.5065 95.3506 11.4671 92.921 11.4671C90.4914 11.4671 90.0818 12.4912 90.0818 13.6586C90.0818 14.826 90.5068 15.8834 92.921 15.8834C95.3353 15.8834 95.7475 14.8235 95.7475 13.6586H95.7603Z" fill="#161B15"/>
<path d="M108.047 19.3498C103.183 19.3498 101.109 17.5039 101.109 13.656V8.15161H105.205V13.656C105.205 14.8388 105.63 15.8808 108.045 15.8808C110.459 15.8808 110.884 14.8234 110.884 13.656V8.15161H114.98V13.656C114.988 17.4886 112.891 19.3498 108.047 19.3498Z" fill="#161B15"/>
<path d="M127.348 16.024L129.304 19.1935H124.44L122.904 16.6078H120.492V19.1935H116.396V8.15405H125.078C127.584 8.15405 129.304 9.92058 129.304 12.3809C129.304 13.9887 128.565 15.3123 127.348 16.024ZM120.505 13.1387H124.289C124.699 13.1387 125.203 13.1387 125.203 12.3707C125.203 11.6026 124.691 11.6026 124.289 11.6026H120.505V13.1157V13.1387Z" fill="#161B15"/>
<path d="M2.2376 4.7728C3.47339 4.7728 4.47519 3.77099 4.47519 2.5352C4.47519 1.29941 3.47339 0.297607 2.2376 0.297607C1.00181 0.297607 0 1.29941 0 2.5352C0 3.77099 1.00181 4.7728 2.2376 4.7728Z" fill="#161B15"/>
<path d="M14.67 4.77231C15.9058 4.77231 16.9076 3.7705 16.9076 2.53471C16.9076 1.29892 15.9058 0.297119 14.67 0.297119C13.4342 0.297119 12.4324 1.29892 12.4324 2.53471C12.4324 3.7705 13.4342 4.77231 14.67 4.77231Z" fill="#161B15"/>
</svg>
