<svg width="90" height="37" viewBox="0 0 90 37" fill="none" xmlns="http://www.w3.org/2000/svg">
<path d="M59.3371 21.604C59.3371 18.8696 57.4218 17.3417 54.4663 17.3417C52.6809 17.3417 50.7985 17.9598 49.4996 18.929V20.251C50.246 19.3994 51.7725 18.2828 53.59 18.2828C56.1228 18.2828 57.1297 19.3699 57.1297 21.6039C57.1297 21.7793 57.1946 22.3381 56.9995 22.455C56.0253 23.1613 48.136 23.2784 48.136 27.9511C48.136 29.9787 49.9543 31.3013 52.0975 31.3013C54.4663 31.3013 55.5711 30.655 57.1621 29.2152C57.3155 30.3306 58.0568 30.9158 59.3537 30.9727C59.3537 30.9727 59.3371 22.7292 59.3371 21.604ZM57.1298 28.3044C56.2201 29.4513 54.7262 30.3022 53.4933 30.3022C51.6098 30.3022 50.6037 29.4513 50.6037 27.54C50.6037 24.4836 54.6938 23.8367 57.1298 23.1319V28.3044ZM12.7682 21.8132C15.4431 21.047 16.9264 19.1904 16.9264 16.4775C16.9264 13.8536 14.6054 11.2294 9.60752 11.2294H4.86835C4.86835 11.2294 4.8886 23.7521 4.87486 28.6015L4.875 28.6201C4.875 29.9699 5.76073 31.0613 7.10813 31.0613H7.1129V12.2169L6.51629 12.056H7.93195C12.4898 11.9577 14.6386 14.3469 14.6386 16.6843C14.6386 19.0365 12.9753 21.0981 10.1121 21.6968C10.1121 21.6968 14.1812 28.0292 14.9264 29.1781C15.6694 30.2606 17.0081 31.0691 18.1682 31.0688C18.1722 31.0688 18.174 31.0669 18.174 31.0669L18.1779 31.0704H18.9916C16.7323 27.8551 14.154 24.2017 12.7682 21.8132ZM89.9381 21.604C89.9381 18.8696 88.0233 17.3417 85.0686 17.3417C83.2823 17.3417 81.3997 17.9598 80.1009 18.929V20.251C80.848 19.3994 82.3744 18.2828 84.1916 18.2828C86.7238 18.2828 87.7306 19.3699 87.7306 21.6039C87.7306 21.7793 87.795 22.3381 87.6011 22.455C86.6268 23.1613 78.7372 23.2784 78.7372 27.9511C78.7372 29.9787 80.5557 31.3013 82.699 31.3013C85.0686 31.3013 86.1719 30.655 87.7631 29.2152C87.9175 30.3287 88.6545 30.9138 89.9453 30.9721C89.9453 30.9721 89.9381 22.0883 89.9381 21.604ZM87.7306 28.3043C86.8208 29.4512 85.3278 30.3021 84.0951 30.3021C82.2118 30.3021 81.2043 29.4512 81.2043 27.5398C81.2043 24.4835 85.2957 23.8366 87.7306 23.1318V28.3043ZM70.5568 17.5753C67.921 17.5753 66.1585 18.8408 65.1409 20.7936V19.9617C65.0289 18.8584 64.1004 17.9963 62.9757 17.9963H62.9724C62.9724 19.1482 62.9626 29.1082 62.9626 29.1082C63.1055 30.1771 64.0169 31.0024 65.1151 31.0024H65.1195C65.1195 29.4528 65.1345 24.3347 65.1345 24.3347C65.1345 21.0141 66.8883 18.5452 69.6793 18.5452C72.9588 18.5452 73.4457 20.8962 73.4457 22.8063L73.4445 29.0372C73.5553 30.14 74.4844 31.0025 75.6082 31.0025H75.6127C75.6127 29.4561 75.6212 22.6007 75.6212 22.6007C75.6212 19.1323 73.8349 17.5753 70.5568 17.5753ZM44.2722 30.655C41.8047 30.655 41.6751 28.6563 41.6751 26.8931V18.8708L41.0561 18.6936H44.9869V17.9822H41.6553V16.6992C41.5432 15.5956 40.6135 14.7338 39.4909 14.7338H39.4871C39.4871 15.7521 39.4848 16.8457 39.4831 17.9822H37.292V18.6936H39.4672V27.9219C39.4672 29.9502 40.7339 31.213 43.0068 31.213C43.8503 31.213 44.7269 31.0664 45.5384 30.8319V30.4791C45.1167 30.5671 44.6943 30.655 44.2722 30.655ZM21.4471 25.7132C20.9195 25.394 20.3207 25.1237 19.6404 24.9227C19.9314 27.7153 22.1619 30.0056 25.1298 30.8748C25.057 30.5811 24.9681 30.2916 24.8635 30.0078C23.1563 29.1658 21.8877 27.602 21.4471 25.7132ZM33.7782 25.6893C33.3366 27.8784 31.9175 29.352 30.2894 30.0993C30.2016 30.347 30.1251 30.5986 30.06 30.8532C32.9894 29.9717 35.1855 27.7052 35.483 24.9422C34.8459 25.1359 34.2801 25.3901 33.7782 25.6893ZM27.7381 18.1107C28.7159 18.1107 29.651 18.3807 30.4856 18.8373C30.787 18.5804 31.0962 18.3329 31.4127 18.0951C30.3362 17.588 29.0989 17.3133 27.7343 17.3133C26.2961 17.3133 24.9966 17.6073 23.868 18.1094C24.1846 18.3481 24.494 18.5962 24.7958 18.8536C25.6742 18.3865 26.6713 18.1107 27.7381 18.1107ZM35.4739 24.1418C35.4282 23.7485 35.3587 23.3584 35.2659 22.9736C32.3275 23.8523 30.0108 26.5979 29.2564 30.091C29.2174 29.448 29.141 28.8152 29.0337 28.1965L29.0318 28.1945L29.0337 28.1916C29.0324 28.1889 29.0324 28.1865 29.0318 28.1836C29.0376 28.1709 29.0448 28.1581 29.0509 28.1454C29.2317 27.6683 30.9078 23.5707 35.0958 22.408C34.9792 22.0394 34.8524 21.6798 34.6943 21.3508C32.1073 22.308 29.9966 24.5506 28.8859 27.454C28.7963 27.0505 28.6919 26.6504 28.573 26.2546L28.5696 26.2514L28.5714 26.2478C28.5701 26.245 28.5695 26.242 28.5696 26.2389C29.7631 23.9413 31.7529 21.5396 34.3433 20.7511C34.1408 20.4136 33.9331 20.0809 33.6836 19.7923C31.3944 20.9072 29.5026 22.9386 28.3261 25.5041C28.2033 25.1609 28.0701 24.8239 27.9264 24.4938L27.9235 24.4924C27.9245 24.4903 27.9251 24.4895 27.9241 24.4874C29.0074 22.3088 30.9807 20.2926 33.1336 19.2455C32.8206 18.9622 32.4874 18.7025 32.1366 18.4684C30.2579 19.7119 28.6805 21.5367 27.5729 23.7379C26.4783 21.5576 24.916 19.7498 23.0508 18.5087C22.6771 18.7286 22.3376 18.9812 22.0171 19.2499C25.6296 21.0104 27.2193 24.4924 27.2193 24.4924C27.0737 24.8271 26.9394 25.1667 26.8165 25.5105C25.637 22.9328 23.7349 20.8933 21.4321 19.7789C21.087 20.1532 20.8942 20.4033 20.6842 20.7134C24.4899 21.793 26.5719 26.2515 26.5719 26.2515C26.4501 26.6539 26.344 27.0608 26.2538 27.4715C25.122 24.5249 22.9525 22.249 20.3251 21.3068C20.148 21.6429 20.0073 21.9964 19.8918 22.3618C24.4598 23.5296 26.1083 28.1945 26.1083 28.1945C25.9986 28.8232 25.9239 29.4576 25.8846 30.0948C25.1195 26.5423 22.7409 23.7631 19.7338 22.932C19.6475 23.3241 19.5993 23.7237 19.5898 24.1252C22.7757 24.8693 25.2581 27.6137 25.8244 31.0653C25.9303 31.0861 26.0355 31.1075 26.1433 31.1259C26.1433 30.4142 26.2672 29.2653 26.3445 28.8271C26.3489 28.8418 26.3515 28.8551 26.3562 28.8696C26.3562 28.8668 26.3584 28.8524 26.3584 28.8524C26.573 29.6311 26.7301 30.4263 26.8721 31.2207C26.9871 31.2318 27.1018 31.2396 27.2187 31.2469C27.2544 30.6467 27.3528 29.3453 27.5693 28.6738C27.5693 28.6738 27.8934 30.2546 27.9333 31.2559C27.9773 31.2542 28.0211 31.2533 28.0657 31.2508V31.2533C28.1352 31.2478 28.2052 31.2431 28.2754 31.236C28.4176 30.4255 28.5912 29.6209 28.7958 28.8241C28.91 29.585 28.9978 30.3652 29.0094 31.1337C29.1116 31.114 29.2133 31.0924 29.3147 31.0688C29.8753 27.6427 32.3235 24.9125 35.4739 24.1418ZM27.0412 30.8332C26.9533 29.9151 26.7666 29.0094 26.4847 28.1318C26.5852 27.695 26.7081 27.2637 26.8529 26.8397C27.0635 27.3114 27.2425 27.7968 27.3886 28.2927C27.2006 29.1279 27.0844 29.9779 27.0412 30.8332ZM27.0994 26.1733C27.2416 25.8214 27.3987 25.4759 27.5703 25.1375C27.7417 25.4763 27.8988 25.8222 28.0409 26.1744C27.8598 26.6313 27.7027 27.0975 27.5703 27.571C27.4378 27.0971 27.2806 26.6305 27.0994 26.1733ZM28.0991 30.8291C28.0558 29.974 27.9393 29.1242 27.7509 28.2892C27.8965 27.7925 28.0753 27.3063 28.2861 26.8339C28.4307 27.2566 28.5531 27.6868 28.6529 28.1225C28.3732 29.0023 28.1876 29.9097 28.0991 30.8291ZM61.7112 10.0911C60.7636 10.6836 59.2461 11.2505 57.7863 11.2505C54.9945 11.2505 52.0812 9.64031 52.0812 6.4782C52.0812 3.76036 54.1942 1.39688 57.6582 1.39688C59.2461 1.39688 60.4499 1.72536 61.6985 2.5432L61.4104 2.90397C60.8596 2.53054 59.5855 1.84784 57.8568 1.84784C54.7703 1.84784 53.2913 4.27576 53.2913 6.4782C53.2913 9.19604 55.3595 10.8704 58.1191 10.8704C58.9707 10.8704 59.8223 10.5806 60.5524 10.2586V5.63461C61.1477 5.63461 61.6985 6.18842 61.6985 6.65858V10.0911H61.7112ZM67.2305 4.53979V4.99686C65.4954 4.99686 64.6183 6.3688 64.6183 8.00448V11.2504C64.0292 11.2504 63.4785 10.6964 63.4785 10.2199V4.53979C64.0548 4.53979 64.6183 5.11935 64.6183 5.57671V6.02738C64.9832 5.19674 65.9309 4.53979 67.2305 4.53979ZM72.2827 7.37328C71.111 7.71471 69.1708 8.01743 69.1708 9.47302C69.1708 10.3809 69.6573 10.8575 70.5475 10.8575C71.1365 10.8575 71.8343 10.3552 72.2827 9.80135V7.37328ZM73.4224 6.56839V11.2504C72.8333 11.2504 72.2827 10.7609 72.2507 10.3037C71.5208 10.9606 71.0083 11.2504 69.8816 11.2504C68.8698 11.2504 67.9927 10.6193 67.9927 9.66621C67.9927 7.45068 71.7448 7.38638 72.1994 7.0707C72.2954 7.00641 72.2827 6.58119 72.2827 6.49115C72.2827 5.43488 71.796 4.91976 70.5859 4.91976C69.7214 4.91976 68.9083 5.37043 68.6456 5.68611V5.29959C69.2476 4.84237 70.1697 4.53965 71.0083 4.53965C72.4107 4.53965 73.4224 5.26104 73.4224 6.56839ZM81.3428 7.04496L81.3171 11.2505C80.7282 11.2505 80.2544 10.8125 80.2032 10.2199V7.04496C80.2032 6.09183 79.9534 4.91962 78.3143 4.91962C76.9248 4.91962 76.0605 6.14347 76.0605 7.8049V11.2504C75.4714 11.2504 74.9206 10.6964 74.9206 10.2199V4.53979C75.5097 4.53979 76.0605 5.11935 76.0605 5.57671V6.14347C76.4383 5.17085 77.3473 4.53979 78.7496 4.53979C80.3889 4.53979 81.3428 5.32548 81.3428 7.04496ZM88.8472 7.90149C88.8472 6.27861 88.1236 4.89387 86.3564 4.89387C84.5828 4.89387 83.8592 6.27861 83.8592 7.90149C83.8592 9.52437 84.5828 10.8832 86.3564 10.8832C88.1236 10.8832 88.8472 9.52437 88.8472 7.90149ZM89.9999 2.4917V11.2505C89.4106 11.2505 88.8472 10.6964 88.8472 10.2071V10.1813C88.2965 10.8253 87.4257 11.2505 86.3564 11.2505C84.0449 11.2505 82.6939 9.7305 82.6939 7.90149C82.6939 6.04018 84.0449 4.53965 86.3564 4.53965C87.4257 4.53965 88.2965 4.95831 88.8472 5.60246V1.44852C89.4362 1.44852 89.9999 2.00233 89.9999 2.4917Z" fill="#F3F3F3"/>
</svg>
