<svg width="123" height="43" viewBox="0 0 123 43" fill="none" xmlns="http://www.w3.org/2000/svg">
<path d="M79.0499 28.9454C79.0499 25.0285 76.3047 22.8399 72.0684 22.8399C69.5094 22.8399 66.8113 23.7253 64.9495 25.1135V27.0072C66.0194 25.7874 68.2073 24.1879 70.8123 24.1879C74.4427 24.1879 75.8859 25.7451 75.8859 28.9452C75.8859 29.1965 75.979 29.9968 75.6994 30.1644C74.303 31.1761 62.995 31.3438 62.995 38.0371C62.995 40.9415 65.6013 42.8361 68.6731 42.8361C72.0684 42.8361 73.652 41.9102 75.9324 39.8479C76.1523 41.4456 77.2148 42.2839 79.0737 42.3653C79.0737 42.3653 79.0499 30.5572 79.0499 28.9454ZM75.8862 38.5433C74.5822 40.1861 72.4409 41.4049 70.6739 41.4049C67.9741 41.4049 66.5321 40.1861 66.5321 37.4482C66.5321 33.0702 72.3945 32.1436 75.8862 31.134V38.5433ZM12.3011 29.245C16.1352 28.1475 18.2612 25.488 18.2612 21.6019C18.2612 17.8434 14.9345 14.0845 7.77084 14.0845H0.978027C0.978027 14.0845 1.00705 32.0223 0.987357 38.9688L0.987564 38.9954C0.987564 40.929 2.25711 42.4922 4.18838 42.4922H4.19522V15.4989L3.34008 15.2685H5.36919C11.902 15.1276 14.982 18.55 14.982 21.8982C14.982 25.2675 12.598 28.2206 8.49413 29.0783C8.49413 29.0783 14.3265 38.149 15.3945 39.7948C16.4595 41.3453 18.3783 42.5035 20.0411 42.5031C20.0469 42.5031 20.0494 42.5004 20.0494 42.5004L20.055 42.5054H21.2213C17.983 37.8996 14.2875 32.6664 12.3011 29.245ZM122.911 28.9454C122.911 25.0285 120.167 22.8399 115.932 22.8399C113.371 22.8399 110.673 23.7253 108.811 25.1135V27.0072C109.882 25.7874 112.07 24.1879 114.675 24.1879C118.304 24.1879 119.747 25.7451 119.747 28.9452C119.747 29.1965 119.84 29.9968 119.562 30.1644C118.165 31.1761 106.857 31.3438 106.857 38.0371C106.857 40.9415 109.463 42.8361 112.535 42.8361C115.932 42.8361 117.513 41.9102 119.794 39.8479C120.015 41.4428 121.072 42.2809 122.922 42.3645C122.922 42.3645 122.911 29.6391 122.911 28.9454ZM119.747 38.5431C118.443 40.1859 116.303 41.4047 114.536 41.4047C111.837 41.4047 110.393 40.1859 110.393 37.448C110.393 33.07 116.257 32.1433 119.747 31.1338V38.5431ZM95.1315 23.1746C91.3535 23.1746 88.8273 24.9872 87.3687 27.7845V26.5928C87.2082 25.0124 85.8773 23.7776 84.2653 23.7776H84.2605C84.2605 25.4275 84.2464 39.6945 84.2464 39.6945C84.4512 41.2257 85.7577 42.4078 87.3318 42.4078H87.338C87.338 40.1882 87.3595 32.8568 87.3595 32.8568C87.3595 28.1004 89.8733 24.5638 93.8737 24.5638C98.5744 24.5638 99.2722 27.9314 99.2722 30.6676L99.2705 39.5929C99.4293 41.1726 100.761 42.4081 102.372 42.4081H102.378C102.378 40.193 102.391 30.373 102.391 30.373C102.391 25.4048 99.8301 23.1746 95.1315 23.1746ZM57.4568 41.9102C53.9202 41.9102 53.7344 39.0473 53.7344 36.5216V25.0302L52.8471 24.7764H58.4813V23.7574H53.706V21.9195C53.5454 20.3387 52.2128 19.1043 50.6037 19.1043H50.5983C50.5983 20.563 50.595 22.1293 50.5925 23.7574H47.452V24.7764H50.5697V37.9952C50.5697 40.9006 52.3853 42.7096 55.6431 42.7096C56.8521 42.7096 58.1086 42.4995 59.2718 42.1636V41.6583C58.6673 41.7844 58.062 41.9102 57.4568 41.9102ZM24.741 34.8314C23.9847 34.3742 23.1264 33.9871 22.1513 33.6991C22.5684 37.6993 25.7655 40.98 30.0194 42.2251C29.9151 41.8044 29.7877 41.3897 29.6377 40.9832C27.1907 39.7771 25.3724 37.537 24.741 34.8314ZM42.4155 34.7972C41.7826 37.9329 39.7485 40.0438 37.4148 41.1142C37.289 41.469 37.1793 41.8294 37.0861 42.1943C41.2848 40.9315 44.4326 37.685 44.859 33.727C43.9458 34.0046 43.1348 34.3686 42.4155 34.7972ZM33.758 23.9414C35.1596 23.9414 36.4998 24.3281 37.6962 24.9822C38.1281 24.6142 38.5713 24.2596 39.025 23.9191C37.482 23.1927 35.7085 22.7993 33.7526 22.7993C31.6911 22.7993 29.8285 23.2204 28.2108 23.9395C28.6646 24.2814 29.1081 24.6369 29.5407 25.0056C30.7997 24.3365 32.2289 23.9414 33.758 23.9414ZM44.846 32.5805C44.7805 32.0172 44.6809 31.4584 44.5478 30.9072C40.3362 32.1659 37.0156 36.0988 35.9343 41.1024C35.8783 40.1813 35.7688 39.2749 35.615 38.3886L35.6123 38.3857L35.615 38.3816C35.6131 38.3778 35.6131 38.3743 35.6123 38.3701C35.6206 38.352 35.631 38.3336 35.6397 38.3155C35.8988 37.632 38.3013 31.7624 44.3041 30.0971C44.137 29.569 43.9552 29.0539 43.7286 28.5826C40.0205 29.9537 36.9953 33.1661 35.4031 37.3251C35.2747 36.7471 35.1251 36.174 34.9547 35.607L34.9498 35.6024L34.9525 35.5972C34.9506 35.5932 34.9497 35.5889 34.9498 35.5845C36.6605 32.2934 39.5126 28.8531 43.2254 27.7236C42.9352 27.2402 42.6375 26.7637 42.2799 26.3502C38.9987 27.9472 36.2871 30.857 34.6009 34.532C34.4249 34.0404 34.2339 33.5576 34.0279 33.0848L34.0237 33.0827C34.0252 33.0798 34.026 33.0786 34.0246 33.0756C35.5773 29.955 38.4058 27.0668 41.4915 25.5669C41.043 25.1612 40.5654 24.7891 40.0626 24.4538C37.3696 26.235 35.1088 28.8489 33.5212 32.0021C31.9523 28.8789 29.713 26.2894 27.0396 24.5115C26.5039 24.8266 26.0173 25.1883 25.5579 25.5732C30.7358 28.095 33.0143 33.0827 33.0143 33.0827C32.8058 33.5623 32.6132 34.0487 32.437 34.5412C30.7464 30.8487 28.0201 27.9272 24.7194 26.3311C24.2248 26.8672 23.9484 27.2254 23.6474 27.6697C29.1023 29.2161 32.0864 35.6026 32.0864 35.6026C31.9119 36.1789 31.7598 36.7619 31.6306 37.3501C30.0082 33.1294 26.8986 29.8693 23.1327 28.5197C22.8789 29.001 22.6772 29.5074 22.5116 30.0308C29.0591 31.7037 31.422 38.3857 31.422 38.3857C31.2647 39.2864 31.1576 40.1951 31.1013 41.1078C30.0047 36.0192 26.5953 32.0381 22.2852 30.8477C22.1615 31.4093 22.0924 31.9817 22.0787 32.5568C26.6453 33.6226 30.2033 37.5539 31.0151 42.4981C31.1668 42.5279 31.3175 42.5585 31.4722 42.5848C31.4722 41.5654 31.6496 39.9196 31.7606 39.292C31.7668 39.313 31.7705 39.332 31.7773 39.3528C31.7773 39.3489 31.7805 39.3282 31.7805 39.3282C32.0881 40.4437 32.3132 41.5827 32.5168 42.7206C32.6816 42.7365 32.846 42.7477 33.0135 42.7581C33.0647 41.8984 33.2057 40.0342 33.516 39.0723C33.516 39.0723 33.9806 41.3368 34.0378 42.771C34.1008 42.7685 34.1637 42.7673 34.2275 42.7638V42.7673C34.3272 42.7594 34.4276 42.7527 34.5281 42.7425C34.732 41.5816 34.9808 40.4291 35.274 39.2876C35.4378 40.3776 35.5636 41.4951 35.5802 42.596C35.7266 42.5678 35.8725 42.5368 36.0178 42.5031C36.8213 37.5954 40.3304 33.6845 44.846 32.5805ZM32.7592 42.1655C32.6331 40.8505 32.3656 39.553 31.9614 38.2959C32.1055 37.6702 32.2817 37.0525 32.4892 36.4451C32.7911 37.1209 33.0477 37.8162 33.2571 38.5264C32.9876 39.7228 32.821 40.9404 32.7592 42.1655ZM32.8425 35.4905C33.0464 34.9865 33.2716 34.4915 33.5175 34.0069C33.7632 34.4921 33.9883 34.9877 34.1921 35.4922C33.9325 36.1467 33.7073 36.8144 33.5175 37.4926C33.3276 36.8138 33.1023 36.1455 32.8425 35.4905ZM34.2754 42.1597C34.2133 40.9347 34.0464 39.7175 33.7764 38.5214C33.985 37.8099 34.2413 37.1134 34.5434 36.4368C34.7507 37.0424 34.9262 37.6585 35.0692 38.2826C34.6683 39.5429 34.4024 40.8426 34.2754 42.1597ZM82.4528 12.4539C81.0945 13.3026 78.9195 14.1147 76.8271 14.1147C72.8255 14.1147 68.6497 11.8082 68.6497 7.27864C68.6497 3.38552 71.6785 0 76.6435 0C78.9195 0 80.6449 0.470518 82.4346 1.64202L82.0216 2.1588C81.2322 1.62389 79.406 0.645972 76.9281 0.645972C72.5042 0.645972 70.3842 4.1238 70.3842 7.27864C70.3842 11.1718 73.3487 13.5702 77.3041 13.5702C78.5248 13.5702 79.7454 13.1551 80.7919 12.6938V6.07026C81.6451 6.07026 82.4346 6.86355 82.4346 7.53703V12.4539H82.4528ZM90.3638 4.50201V5.15673C87.8768 5.15673 86.6197 7.12194 86.6197 9.46495V14.1145C85.7753 14.1145 84.9859 13.321 84.9859 12.6383V4.50201C85.812 4.50201 86.6197 5.33218 86.6197 5.98733V6.63288C87.1427 5.44304 88.501 4.50201 90.3638 4.50201ZM97.6052 8.56079C95.9259 9.04986 93.1448 9.48349 93.1448 11.5685C93.1448 12.869 93.8422 13.5517 95.1182 13.5517C95.9623 13.5517 96.9626 12.8321 97.6052 12.0388V8.56079ZM99.2388 7.40784V14.1145C98.3945 14.1145 97.6052 13.4133 97.5594 12.7584C96.5132 13.6994 95.7787 14.1145 94.1637 14.1145C92.7134 14.1145 91.4563 13.2105 91.4563 11.8452C91.4563 8.67165 96.8343 8.57955 97.4858 8.12737C97.6235 8.03526 97.6052 7.42618 97.6052 7.29719C97.6052 5.78416 96.9077 5.04629 95.1731 5.04629C93.9341 5.04629 92.7686 5.69184 92.3921 6.14403V5.59036C93.2549 4.93543 94.5767 4.5018 95.7787 4.5018C97.7887 4.5018 99.2388 5.53514 99.2388 7.40784ZM110.591 8.09048L110.555 14.1147C109.71 14.1147 109.031 13.4873 108.958 12.6383V8.09048C108.958 6.72519 108.6 5.04608 106.251 5.04608C104.259 5.04608 103.02 6.79917 103.02 9.17905V14.1145C102.176 14.1145 101.386 13.321 101.386 12.6383V4.50201C102.231 4.50201 103.02 5.33218 103.02 5.98733V6.79917C103.562 5.40595 104.865 4.50201 106.875 4.50201C109.224 4.50201 110.591 5.62746 110.591 8.09048ZM121.348 9.31741C121.348 6.99275 120.31 5.0092 117.778 5.0092C115.235 5.0092 114.198 6.99275 114.198 9.31741C114.198 11.6421 115.235 13.5885 117.778 13.5885C120.31 13.5885 121.348 11.6421 121.348 9.31741ZM123 1.56825V14.1147C122.155 14.1147 121.348 13.321 121.348 12.62V12.5831C120.558 13.5056 119.31 14.1147 117.778 14.1147C114.464 14.1147 112.528 11.9374 112.528 9.31741C112.528 6.65122 114.464 4.5018 117.778 4.5018C119.31 4.5018 120.558 5.10151 121.348 6.02421V0.0739742C122.192 0.0739742 123 0.867269 123 1.56825Z" fill="#151F1E"/>
</svg>
